<svg xmlns="http://www.w3.org/2000/svg" viewBox="0 0 49 55"><defs><style>.cls-1{fill:#fff;}.cls-2{fill:#212a41;}.cls-3{fill:#d4007f;}.cls-4{fill:#f14c7c;}.cls-5{fill:#b51040;}.cls-6{fill:#e0e0e0;}.cls-7{fill:#fefefe;}.cls-8{fill:#c2c2c2;}</style></defs><g id="Capa_2" data-name="Capa 2"><g id="GÃFICOS"><path class="cls-1" d="M34.5,4.5h-2v-3a1,1,0,0,0-1-1h-16a1,1,0,0,0-1,1v3h-4a10,10,0,0,0-10,10v29a1,1,0,0,0,1,1h7v9a1,1,0,0,0,1,1h26a1,1,0,0,0,1-1v-9h7a1,1,0,0,0,1-1v-29A10,10,0,0,0,34.5,4.5Z"/><path class="cls-2" d="M35.5,55H9.5A1.5,1.5,0,0,1,8,53.5V45H1.5A1.5,1.5,0,0,1,0,43.5v-29A10.51,10.51,0,0,1,10.5,4H14V1.5A1.5,1.5,0,0,1,15.5,0h16A1.5,1.5,0,0,1,33,1.5V4h1.5A10.51,10.51,0,0,1,45,14.5v29A1.5,1.5,0,0,1,43.5,45H37v8.5A1.5,1.5,0,0,1,35.5,55ZM10.5,5A9.51,9.51,0,0,0,1,14.5v29a.5.5,0,0,0,.5.5h7a.5.5,0,0,1,.5.5v9a.5.5,0,0,0,.5.5h26a.5.5,0,0,0,.5-.5v-9a.5.5,0,0,1,.5-.5h7a.5.5,0,0,0,.5-.5v-29A9.51,9.51,0,0,0,34.5,5h-2a.5.5,0,0,1-.5-.5v-3a.5.5,0,0,0-.5-.5h-16a.5.5,0,0,0-.5.5v3a.5.5,0,0,1-.5.5Z"/><path class="cls-3" d="M38.5,4.5h-24a10,10,0,0,0-10,10v29a1,1,0,0,0,1,1h7v9a1,1,0,0,0,1,1h26a1,1,0,0,0,1-1v-9h7a1,1,0,0,0,1-1v-29A10,10,0,0,0,38.5,4.5Z"/><path class="cls-2" d="M39.5,55h-26A1.5,1.5,0,0,1,12,53.5V45H5.5A1.5,1.5,0,0,1,4,43.5v-29A10.51,10.51,0,0,1,14.5,4h24A10.51,10.51,0,0,1,49,14.5v29A1.5,1.5,0,0,1,47.5,45H41v8.5A1.5,1.5,0,0,1,39.5,55ZM14.5,5A9.51,9.51,0,0,0,5,14.5v29a.5.5,0,0,0,.5.5h7a.5.5,0,0,1,.5.5v9a.5.5,0,0,0,.5.5h26a.5.5,0,0,0,.5-.5v-9a.5.5,0,0,1,.5-.5h7a.5.5,0,0,0,.5-.5v-29A9.51,9.51,0,0,0,38.5,5Z"/><path class="cls-4" d="M6.5,43a.5.5,0,0,1-.5-.5v-28A8.51,8.51,0,0,1,14.5,6a.5.5,0,0,1,0,1A7.5,7.5,0,0,0,7,14.5v28A.5.5,0,0,1,6.5,43Z"/><path class="cls-5" d="M46.5,43a.5.5,0,0,1-.5-.5v-28A7.5,7.5,0,0,0,38.5,7a.5.5,0,0,1,0-1A8.51,8.51,0,0,1,47,14.5v28A.5.5,0,0,1,46.5,43Z"/><path class="cls-2" d="M12.5,45a.5.5,0,0,1-.5-.5v-24a.5.5,0,0,1,1,0v24A.5.5,0,0,1,12.5,45Z"/><path class="cls-2" d="M40.5,45a.5.5,0,0,1-.5-.5v-24a.5.5,0,0,1,1,0v24A.5.5,0,0,1,40.5,45Z"/><path class="cls-2" d="M33.5,5h-14a.5.5,0,0,1,0-1h14a.5.5,0,0,1,0,1Z"/><rect class="cls-3" x="21.5" y="0.5" width="13" height="6" rx="1"/><path class="cls-2" d="M33.5,7h-11A1.5,1.5,0,0,1,21,5.5v-4A1.5,1.5,0,0,1,22.5,0h11A1.5,1.5,0,0,1,35,1.5v4A1.5,1.5,0,0,1,33.5,7Zm-11-6a.5.5,0,0,0-.5.5v4a.5.5,0,0,0,.5.5h11a.5.5,0,0,0,.5-.5v-4a.5.5,0,0,0-.5-.5Z"/><path class="cls-6" d="M16.5,42.5v-22L7.88,7A10,10,0,0,0,4.5,14.5v2l8,4v22Z"/><path class="cls-2" d="M36.5,13h-4a.5.5,0,0,1,0-1h4a.5.5,0,0,1,0,1Z"/><path class="cls-2" d="M36.5,16h-4a.5.5,0,0,1,0-1h4a.5.5,0,0,1,0,1Z"/><polygon class="cls-6" points="40.5 42.5 36.5 42.5 29.5 48.5 23.5 48.5 16.5 42.5 12.5 42.5 12.5 46.5 23.5 54.5 29.5 54.5 40.5 46.5 40.5 42.5"/><path class="cls-2" d="M29.5,55h-6a.43.43,0,0,1-.29-.1l-11-8a.49.49,0,0,1-.21-.4v-4a.5.5,0,0,1,.5-.5h4a.52.52,0,0,1,.33.12L23.69,48h5.62l6.86-5.88A.52.52,0,0,1,36.5,42h4a.5.5,0,0,1,.5.5v4a.49.49,0,0,1-.21.4l-11,8A.43.43,0,0,1,29.5,55Zm-5.84-1h5.68L40,46.25V43H36.69l-6.86,5.88a.52.52,0,0,1-.33.12h-6a.52.52,0,0,1-.33-.12L16.31,43H13v3.25Z"/><path class="cls-7" d="M6.5,18a.5.5,0,0,1-.5-.5v-3A8.43,8.43,0,0,1,8.62,8.37a.5.5,0,1,1,.69.72A7.43,7.43,0,0,0,7,14.5v3A.5.5,0,0,1,6.5,18Z"/><path class="cls-6" d="M36.5,42.5v-22L45.12,7A10,10,0,0,1,48.5,14.5v2l-8,4v22Z"/><path class="cls-8" d="M46.5,18a.5.5,0,0,1-.5-.5v-3a7.43,7.43,0,0,0-2.31-5.41.5.5,0,1,1,.69-.72A8.43,8.43,0,0,1,47,14.5v3A.5.5,0,0,1,46.5,18Z"/><path class="cls-2" d="M16.5,43h-4a.5.5,0,0,1-.5-.5V20.85L4.28,17A.49.49,0,0,1,4,16.54v-2A10.48,10.48,0,0,1,7.55,6.65.45.45,0,0,1,8,6.53a.51.51,0,0,1,.35.22l8.62,13.52a.53.53,0,0,1,.08.27v22A.5.5,0,0,1,16.5,43ZM13,42h3V20.69L7.78,7.8A9.52,9.52,0,0,0,5,14.5v1.73l7.72,3.87a.49.49,0,0,1,.28.44Z"/><path class="cls-2" d="M40.5,43h-4a.5.5,0,0,1-.5-.5v-22a.53.53,0,0,1,.08-.27L44.7,6.75a.51.51,0,0,1,.35-.22.45.45,0,0,1,.4.12A10.48,10.48,0,0,1,49,14.5v2a.49.49,0,0,1-.28.44L41,20.85V42.5A.5.5,0,0,1,40.5,43ZM37,42h3V20.54a.49.49,0,0,1,.28-.44L48,16.23V14.5a9.52,9.52,0,0,0-2.78-6.7L37,20.69Z"/><path class="cls-8" d="M4.5,14.5A10,10,0,0,1,7.88,7h-4A10,10,0,0,0,.5,14.5v2h4Z"/><path class="cls-2" d="M4.5,17H.5a.5.5,0,0,1-.5-.5v-2A10.48,10.48,0,0,1,3.55,6.65a.51.51,0,0,1,.33-.13h4a.5.5,0,0,1,.33.88A9.48,9.48,0,0,0,5,14.5v2A.5.5,0,0,1,4.5,17ZM1,16H4V14.5a10.5,10.5,0,0,1,2.67-7H4.07A9.51,9.51,0,0,0,1,14.5Z"/><path class="cls-2" d="M26.5,55a.5.5,0,0,1-.5-.5V6.5a.5.5,0,0,1,1,0v48A.5.5,0,0,1,26.5,55Z"/><circle class="cls-2" cx="25" cy="3.5" r="1"/></g></g></svg>