<svg xmlns="http://www.w3.org/2000/svg" viewBox="0 0 33 57"><defs><style>.cls-1{fill:#c2c2c2;}.cls-2{fill:#212a41;}.cls-3{fill:#e0e0e0;}.cls-4{fill:#fefefe;}.cls-5{fill:#4e4b51;}.cls-6{fill:#6c696f;}.cls-7{fill:#8a878d;}.cls-8{fill:#d32e5e;}</style></defs><g id="Capa_2" data-name="Capa 2"><g id="GÃFICOS"><polygon class="cls-1" points="20.5 31.5 20.5 18.5 18.5 16.5 20.5 14.5 20.5 12.5 18.5 10.5 20.5 8.5 20.5 6.5 14.5 0.5 8.5 6.5 8.5 31.5 20.5 31.5"/><path class="cls-2" d="M20.5,32H8.5a.5.5,0,0,1-.5-.5V6.5a.47.47,0,0,1,.15-.35l6-6a.48.48,0,0,1,.7,0l6,6A.47.47,0,0,1,21,6.5v2a.47.47,0,0,1-.15.35L19.21,10.5l1.64,1.65a.47.47,0,0,1,.15.35v2a.47.47,0,0,1-.15.35L19.21,16.5l1.64,1.65a.47.47,0,0,1,.15.35v13A.5.5,0,0,1,20.5,32ZM9,31H20V18.71l-1.85-1.86a.48.48,0,0,1,0-.7L20,14.29V12.71l-1.85-1.86a.48.48,0,0,1,0-.7L20,8.29V6.71l-5.5-5.5L9,6.71Z"/><polygon class="cls-3" points="24.5 31.5 24.5 18.5 22.5 16.5 24.5 14.5 24.5 12.5 22.5 10.5 24.5 8.5 24.5 6.5 18.5 0.5 12.5 6.5 12.5 31.5 24.5 31.5"/><path class="cls-2" d="M24.5,32h-12a.5.5,0,0,1-.5-.5V6.5a.47.47,0,0,1,.15-.35l6-6a.48.48,0,0,1,.7,0l6,6A.47.47,0,0,1,25,6.5v2a.47.47,0,0,1-.15.35L23.21,10.5l1.64,1.65a.47.47,0,0,1,.15.35v2a.47.47,0,0,1-.15.35L23.21,16.5l1.64,1.65a.47.47,0,0,1,.15.35v13A.5.5,0,0,1,24.5,32ZM13,31H24V18.71l-1.85-1.86a.48.48,0,0,1,0-.7L24,14.29V12.71l-1.85-1.86a.48.48,0,0,1,0-.7L24,8.29V6.71l-5.5-5.5L13,6.71Z"/><path class="cls-1" d="M22.5,30a.5.5,0,0,1-.5-.5v-10l-1.27-1.27a2.52,2.52,0,0,1,0-3.54L22,13.5l-1.23-1.23a2.52,2.52,0,0,1,0-3.54L22,7.46V7.33a.5.5,0,1,1,1,0v.34a.47.47,0,0,1-.15.35L21.44,9.44a1.49,1.49,0,0,0,0,2.12L22.85,13a.47.47,0,0,1,.15.35v.34a.47.47,0,0,1-.15.35l-1.41,1.42a1.49,1.49,0,0,0,0,2.12L22.85,19a.47.47,0,0,1,.15.35V29.5A.5.5,0,0,1,22.5,30Z"/><path class="cls-4" d="M14.5,30a.5.5,0,0,1-.5-.5V7.33a.5.5,0,1,1,1,0V29.5A.5.5,0,0,1,14.5,30Z"/><path class="cls-2" d="M18.5,32a.5.5,0,0,1-.5-.5V.5a.5.5,0,0,1,1,0v31A.5.5,0,0,1,18.5,32Z"/><path class="cls-5" d="M4.5,31.5h20a4,4,0,0,1,4,4v13a8,8,0,0,1-8,8H8.5a8,8,0,0,1-8-8v-13a4,4,0,0,1,4-4Z"/><path class="cls-2" d="M20.5,57H8.5A8.51,8.51,0,0,1,0,48.5v-13A4.51,4.51,0,0,1,4.5,31h20A4.51,4.51,0,0,1,29,35.5v13A8.51,8.51,0,0,1,20.5,57ZM4.5,32A3.5,3.5,0,0,0,1,35.5v13A7.5,7.5,0,0,0,8.5,56h12A7.5,7.5,0,0,0,28,48.5v-13A3.5,3.5,0,0,0,24.5,32Z"/><path class="cls-6" d="M8.5,31.5h20a4,4,0,0,1,4,4v13a8,8,0,0,1-8,8h-12a8,8,0,0,1-8-8v-13A4,4,0,0,1,8.5,31.5Z"/><path class="cls-2" d="M24.5,57h-12A8.51,8.51,0,0,1,4,48.5v-13A4.51,4.51,0,0,1,8.5,31h20A4.51,4.51,0,0,1,33,35.5v13A8.51,8.51,0,0,1,24.5,57ZM8.5,32A3.5,3.5,0,0,0,5,35.5v13A7.5,7.5,0,0,0,12.5,56h12A7.5,7.5,0,0,0,32,48.5v-13A3.5,3.5,0,0,0,28.5,32Z"/><path class="cls-7" d="M12.5,55A6.51,6.51,0,0,1,6,48.5v-13a.5.5,0,0,1,1,0v13A5.51,5.51,0,0,0,12.5,54a.5.5,0,0,1,0,1Z"/><path class="cls-5" d="M24.5,55a.5.5,0,0,1,0-1A5.51,5.51,0,0,0,30,48.5v-13a.5.5,0,0,1,1,0v13A6.51,6.51,0,0,1,24.5,55Z"/><rect class="cls-8" x="12.5" y="42" width="12" height="4" rx="1"/><path class="cls-2" d="M23.5,46.5h-10A1.5,1.5,0,0,1,12,45V43a1.5,1.5,0,0,1,1.5-1.5h10A1.5,1.5,0,0,1,25,43v2A1.5,1.5,0,0,1,23.5,46.5Zm-10-4a.5.5,0,0,0-.5.5v2a.5.5,0,0,0,.5.5h10A.5.5,0,0,0,24,45V43a.5.5,0,0,0-.5-.5Z"/></g></g></svg>