<svg xmlns="http://www.w3.org/2000/svg" viewBox="0 0 56 53"><defs><style>.cls-1{fill:#4e4b51;}.cls-2{fill:#212a41;}.cls-3{fill:#007da5;}.cls-4{fill:#e0e0e0;}.cls-5{fill:#6c696f;}.cls-6{fill:#fff;}.cls-7{fill:#0079a8;}.cls-8{fill:#b7c0d7;}</style></defs><g id="Capa_2" data-name="Capa 2"><g id="GÃFICOS"><path class="cls-1" d="M26.5.5a26,26,0,1,0,26,26A26,26,0,0,0,26.5.5Zm0,47a21,21,0,1,1,21-21A21,21,0,0,1,26.5,47.5Z"/><path class="cls-2" d="M26.5,53A26.5,26.5,0,1,1,53,26.5,26.53,26.53,0,0,1,26.5,53Zm0-52A25.5,25.5,0,1,0,52,26.5,25.53,25.53,0,0,0,26.5,1Zm0,47A21.5,21.5,0,1,1,48,26.5,21.52,21.52,0,0,1,26.5,48Zm0-42A20.5,20.5,0,1,0,47,26.5,20.53,20.53,0,0,0,26.5,6Z"/><circle class="cls-3" cx="26.5" cy="26.5" r="8"/><path class="cls-2" d="M26.5,35A8.5,8.5,0,1,1,35,26.5,8.51,8.51,0,0,1,26.5,35Zm0-16A7.5,7.5,0,1,0,34,26.5,7.5,7.5,0,0,0,26.5,19Z"/><path class="cls-4" d="M26.5,34.5A7.9,7.9,0,0,1,23,33.7L21.82,47a20.55,20.55,0,0,0,9.36,0L30,33.7A7.9,7.9,0,0,1,26.5,34.5Z"/><path class="cls-2" d="M26.5,48a22.15,22.15,0,0,1-4.79-.55.52.52,0,0,1-.39-.54l1.21-13.26a.5.5,0,0,1,.25-.39.52.52,0,0,1,.47,0,7.42,7.42,0,0,0,6.5,0,.52.52,0,0,1,.47,0,.5.5,0,0,1,.25.39l1.21,13.26a.52.52,0,0,1-.39.54A22.15,22.15,0,0,1,26.5,48Zm-4.14-1.44a19.92,19.92,0,0,0,8.28,0l-1.1-12.13a8.39,8.39,0,0,1-6.08,0Z"/><path class="cls-5" d="M29.5.5a26,26,0,1,0,26,26A26,26,0,0,0,29.5.5Zm0,47a21,21,0,1,1,21-21A21,21,0,0,1,29.5,47.5Z"/><path class="cls-2" d="M29.5,53A26.5,26.5,0,1,1,56,26.5,26.53,26.53,0,0,1,29.5,53Zm0-52A25.5,25.5,0,1,0,55,26.5,25.53,25.53,0,0,0,29.5,1Zm0,47A21.5,21.5,0,1,1,51,26.5,21.52,21.52,0,0,1,29.5,48Zm0-42A20.5,20.5,0,1,0,50,26.5,20.53,20.53,0,0,0,29.5,6Z"/><path class="cls-4" d="M49.73,20.92,35.5,22.5h-12L9.27,20.92A20.94,20.94,0,0,0,8.5,26.5a20.18,20.18,0,0,0,.14,2.35L23.5,30.5h2.82L24.82,47a20.55,20.55,0,0,0,9.36,0L32.68,30.5H35.5l14.86-1.65a20.18,20.18,0,0,0,.14-2.35A20.94,20.94,0,0,0,49.73,20.92Z"/><path class="cls-2" d="M29.5,48a22.15,22.15,0,0,1-4.79-.55.52.52,0,0,1-.39-.54L25.77,31H23.5L8.58,29.35a.51.51,0,0,1-.44-.45A22.77,22.77,0,0,1,8,26.5a21.71,21.71,0,0,1,.79-5.71.5.5,0,0,1,.54-.37L23.56,22H35.5l14.17-1.58a.5.5,0,0,1,.54.37A21.71,21.71,0,0,1,51,26.5a22.77,22.77,0,0,1-.14,2.4.51.51,0,0,1-.44.45L35.56,31H33.23l1.45,15.91a.52.52,0,0,1-.39.54A22.15,22.15,0,0,1,29.5,48Zm-4.14-1.44a19.92,19.92,0,0,0,8.28,0l-1.46-16a.56.56,0,0,1,.13-.39.52.52,0,0,1,.37-.16H35.5l14.41-1.6c.06-.67.09-1.29.09-1.9a20.44,20.44,0,0,0-.65-5L35.56,23H23.5L9.65,21.46a20.44,20.44,0,0,0-.65,5c0,.61,0,1.23.09,1.9L23.56,30h2.76a.52.52,0,0,1,.37.16.56.56,0,0,1,.13.39Z"/><circle class="cls-3" cx="29.5" cy="26.5" r="8"/><path class="cls-2" d="M29.5,35A8.5,8.5,0,1,1,38,26.5,8.51,8.51,0,0,1,29.5,35Zm0-16A7.5,7.5,0,1,0,37,26.5,7.5,7.5,0,0,0,29.5,19Z"/><path class="cls-6" d="M29.5,33a.5.5,0,0,1,0-1A5.51,5.51,0,0,0,35,26.5a.5.5,0,0,1,1,0A6.51,6.51,0,0,1,29.5,33Z"/><path class="cls-6" d="M23.5,27a.5.5,0,0,1-.5-.5A6.51,6.51,0,0,1,29.5,20a.5.5,0,0,1,0,1A5.51,5.51,0,0,0,24,26.5.5.5,0,0,1,23.5,27Z"/><rect class="cls-7" x="25.5" y="25" width="8" height="3" rx="1"/><path class="cls-2" d="M32.5,28.5h-6A1.5,1.5,0,0,1,25,27V26a1.5,1.5,0,0,1,1.5-1.5h6A1.5,1.5,0,0,1,34,26v1A1.5,1.5,0,0,1,32.5,28.5Zm-6-3a.5.5,0,0,0-.5.5v1a.5.5,0,0,0,.5.5h6A.5.5,0,0,0,33,27V26a.5.5,0,0,0-.5-.5Z"/><circle class="cls-8" cx="43.5" cy="25.5" r="1.5"/><path class="cls-2" d="M43.5,27.5a2,2,0,1,1,2-2A2,2,0,0,1,43.5,27.5Zm0-3a1,1,0,1,0,1,1A1,1,0,0,0,43.5,24.5Z"/><circle class="cls-8" cx="29.5" cy="41.5" r="1.5"/><path class="cls-2" d="M29.5,43.5a2,2,0,1,1,2-2A2,2,0,0,1,29.5,43.5Zm0-3a1,1,0,1,0,1,1A1,1,0,0,0,29.5,40.5Z"/><circle class="cls-8" cx="15.5" cy="25.5" r="1.5"/><path class="cls-2" d="M15.5,27.5a2,2,0,1,1,2-2A2,2,0,0,1,15.5,27.5Zm0-3a1,1,0,1,0,1,1A1,1,0,0,0,15.5,24.5Z"/></g></g></svg>