<svg xmlns="http://www.w3.org/2000/svg" viewBox="0 0 57 49"><defs><style>.cls-1{fill:#6c696f;}.cls-2{fill:#212a41;}.cls-3{fill:#4e4b51;}.cls-4{fill:#b7c0d7;}.cls-5{fill:#8a878d;}.cls-6{fill:#e0e0e0;}</style></defs><g id="Capa_2" data-name="Capa 2"><g id="GÃFICOS"><path class="cls-1" d="M32.5.5a24,24,0,1,0,24,24A24,24,0,0,0,32.5.5Zm0,40a16,16,0,1,1,16-16A16,16,0,0,1,32.5,40.5Z"/><path class="cls-2" d="M32.5,49A24.5,24.5,0,1,1,57,24.5,24.53,24.53,0,0,1,32.5,49Zm0-48A23.5,23.5,0,1,0,56,24.5,23.52,23.52,0,0,0,32.5,1Zm0,40A16.5,16.5,0,1,1,49,24.5,16.52,16.52,0,0,1,32.5,41Zm0-32A15.5,15.5,0,1,0,48,24.5,15.51,15.51,0,0,0,32.5,9Z"/><path class="cls-3" d="M8.5,24.5a24,24,0,0,1,24-24h-8a24,24,0,0,0,0,48h8A24,24,0,0,1,8.5,24.5Z"/><path class="cls-2" d="M32.5,49h-8a24.5,24.5,0,0,1,0-49h8a.5.5,0,0,1,.5.5.5.5,0,0,1-.5.5,23.5,23.5,0,0,0,0,47,.5.5,0,0,1,0,1Zm-8-48a23.5,23.5,0,0,0,0,47h1.06a24.5,24.5,0,0,1,0-47Z"/><path class="cls-3" d="M32.5,8.5a16,16,0,0,0-4,.52,16,16,0,0,1,0,31,16,16,0,0,0,20-15.48,15.71,15.71,0,0,0-.09-1.67A16,16,0,0,0,32.5,8.5Z"/><path class="cls-2" d="M32.5,41a16.42,16.42,0,0,1-4.12-.54.5.5,0,0,1,0-1,15.48,15.48,0,0,0,0-30,.5.5,0,0,1,0-1A16.43,16.43,0,0,1,48.91,22.78C49,23.41,49,24,49,24.5A16.52,16.52,0,0,1,32.5,41Zm-2-1.14a15.32,15.32,0,0,0,2,.14A15.51,15.51,0,0,0,48,24.5c0-.5,0-1-.08-1.62A15.43,15.43,0,0,0,30.49,9.14a16.48,16.48,0,0,1,0,30.72Z"/><path class="cls-4" d="M32.5,6A18.5,18.5,0,1,0,51,24.5,18.5,18.5,0,0,0,32.5,6Zm0,34.5a16,16,0,1,1,16-16A16,16,0,0,1,32.5,40.5Z"/><path class="cls-2" d="M32.5,43.5a19,19,0,1,1,19-19A19,19,0,0,1,32.5,43.5Zm0-37a18,18,0,1,0,18,18A18,18,0,0,0,32.5,6.5Zm0,34.5A16.5,16.5,0,1,1,49,24.5,16.52,16.52,0,0,1,32.5,41Zm0-32A15.5,15.5,0,1,0,48,24.5,15.51,15.51,0,0,0,32.5,9Z"/><path class="cls-5" d="M10.5,25a.5.5,0,0,1-.5-.5A22.52,22.52,0,0,1,32.5,2a.5.5,0,0,1,0,1A21.53,21.53,0,0,0,11,24.5.5.5,0,0,1,10.5,25Z"/><path class="cls-3" d="M32.5,47a.5.5,0,0,1,0-1A21.53,21.53,0,0,0,54,24.5a.5.5,0,0,1,1,0A22.52,22.52,0,0,1,32.5,47Z"/><path class="cls-6" d="M48.5,24.5a14.76,14.76,0,0,0-.08-1.5H36.12l8.7-8.7a16.33,16.33,0,0,0-2.12-2.12L34,20.88V8.58a14.1,14.1,0,0,0-3,0v12.3l-8.7-8.7a16.33,16.33,0,0,0-2.12,2.12l8.7,8.7H16.58a14.1,14.1,0,0,0,0,3h12.3l-8.7,8.7a16.33,16.33,0,0,0,2.12,2.12l8.7-8.7v12.3a14.1,14.1,0,0,0,3,0V28.12l8.7,8.7a16.33,16.33,0,0,0,2.12-2.12L36.12,26h12.3A14.76,14.76,0,0,0,48.5,24.5Z"/><path class="cls-2" d="M32.5,41c-.48,0-1,0-1.55-.08a.5.5,0,0,1-.45-.5V29.33l-7.85,7.85a.5.5,0,0,1-.67,0A17.43,17.43,0,0,1,19.79,35a.5.5,0,0,1,0-.67l7.85-7.85H16.58a.5.5,0,0,1-.5-.45C16,25.48,16,25,16,24.5s0-1,.08-1.55a.5.5,0,0,1,.5-.45H27.67l-7.85-7.85a.5.5,0,0,1,0-.67A17.43,17.43,0,0,1,22,11.79a.5.5,0,0,1,.67,0l7.85,7.85V8.58a.5.5,0,0,1,.45-.5,14.6,14.6,0,0,1,3.1,0,.5.5,0,0,1,.45.5V19.67l7.85-7.85a.5.5,0,0,1,.67,0A17.43,17.43,0,0,1,45.21,14a.5.5,0,0,1,0,.67L37.33,22.5H48.42a.5.5,0,0,1,.5.45c0,.57.08,1.07.08,1.55s0,1-.08,1.55a.5.5,0,0,1-.5.45H37.33l7.85,7.85a.5.5,0,0,1,0,.67A17.43,17.43,0,0,1,43,37.21a.5.5,0,0,1-.67,0L34.5,29.33V40.42a.5.5,0,0,1-.45.5C33.48,41,33,41,32.5,41Zm-1-1a13.35,13.35,0,0,0,2,0V28.12a.5.5,0,0,1,.31-.46.47.47,0,0,1,.54.11l8.38,8.37a15.64,15.64,0,0,0,1.41-1.41l-8.37-8.38a.47.47,0,0,1-.11-.54.5.5,0,0,1,.46-.31H48c0-.35,0-.69,0-1s0-.65,0-1H36.12a.5.5,0,0,1-.46-.31.47.47,0,0,1,.11-.54l8.37-8.38a15.64,15.64,0,0,0-1.41-1.41l-8.38,8.37a.47.47,0,0,1-.54.11.5.5,0,0,1-.31-.46V9a13.35,13.35,0,0,0-2,0V20.88a.5.5,0,0,1-.31.46.47.47,0,0,1-.54-.11l-8.38-8.37a15.64,15.64,0,0,0-1.41,1.41l8.37,8.38a.47.47,0,0,1,.11.54.5.5,0,0,1-.46.31H17c0,.35,0,.69,0,1s0,.65,0,1H28.88a.5.5,0,0,1,.46.31.47.47,0,0,1-.11.54l-8.37,8.38a15.64,15.64,0,0,0,1.41,1.41l8.38-8.37a.47.47,0,0,1,.54-.11.5.5,0,0,1,.31.46Z"/><circle class="cls-6" cx="32.5" cy="24.5" r="6"/><path class="cls-2" d="M32.5,31A6.5,6.5,0,1,1,39,24.5,6.51,6.51,0,0,1,32.5,31Zm0-12A5.5,5.5,0,1,0,38,24.5,5.51,5.51,0,0,0,32.5,19Z"/><circle class="cls-4" cx="32.5" cy="24.5" r="3"/><path class="cls-2" d="M32.5,28A3.5,3.5,0,1,1,36,24.5,3.5,3.5,0,0,1,32.5,28Zm0-6A2.5,2.5,0,1,0,35,24.5,2.5,2.5,0,0,0,32.5,22Z"/></g></g></svg>